# xmcd
#
# Track frame offsets:
# 150
# 9135
# 21522
# 36965
# 49847
# 63332
# 82172
# 99572
# 122395
# 143897
# 156867
# 166827
# 178592
# 199792
# 216565
#
# Disc length: 3090 seconds
#
#
# Revision: 0
# Processed by: cddbd v1.5.1PL2 Copyright (c) Steve Scherf et al.
# Submitted via: FreeRIP 2.943 
#
DISCID=cd0c100f
DTITLE=Talisman - Shine [CDOne)
DYEAR=1900
DGENRE=A Cappella
TTITLE0=Babethandaza
TTITLE1=Akanamandia
TTITLE2=The Lion Sleeps Tonight
TTITLE3=Siyaya eJerusalema
TTITLE4=Sechaba
TTITLE5=Lean on Me
TTITLE6=Keep Your Eyes on the Prize
TTITLE7=Adiemus
TTITLE8=When I Die Tomorrow
TTITLE9=Hombe
TTITLE10=Hallelujah
TTITLE11=Baba Yetu
TTITLE12=Zulu Seliyaduma
TTITLE13=If We Ever
TTITLE14=Glory, Glory
EXTD=
EXTT0=
EXTT1=
EXTT2=
EXTT3=
EXTT4=
EXTT5=
EXTT6=
EXTT7=
EXTT8=
EXTT9=
EXTT10=
EXTT11=
EXTT12=
EXTT13=
EXTT14=
PLAYORDER=
